<?xml version="1.0" encoding="UTF-8"?>
<svg width="64px" height="64px" viewBox="0 0 64 64" version="1.1" xmlns="http://www.w3.org/2000/svg" xmlns:xlink="http://www.w3.org/1999/xlink">
    <!-- Generator: Sketch 42 (36781) - http://www.bohemiancoding.com/sketch -->
    <title>instagram</title>
    <desc>Created with Sketch.</desc>
    <defs></defs>
    <g id="Page-1" stroke="none" stroke-width="1" fill="none" fill-rule="evenodd">
        <g id="Desktop-HD" transform="translate(-1344.000000, -32.000000)">
            <g id="Hero">
                <g id="Right-Side" transform="translate(376.000000, 0.000000)">
                    <g id="Social-Media" transform="translate(808.000000, 32.000000)">
                        <g id="instagram" transform="translate(160.000000, 0.000000)">
                            <circle id="icon-background" fill="#4C5E71" fill-rule="nonzero" cx="32" cy="32" r="32"></circle>
                            <path d="M32,16 C27.654,16 27.11,16.02 25.404,16.096 C23.7,16.176 22.54,16.444 21.52,16.84 C20.468,17.248 19.574,17.796 18.686,18.686 C17.796,19.574 17.246,20.466 16.84,21.52 C16.444,22.54 16.174,23.7 16.096,25.404 C16.016,27.11 16,27.654 16,32 C16,36.346 16.02,36.89 16.096,38.596 C16.176,40.3 16.444,41.462 16.84,42.48 C17.248,43.532 17.796,44.426 18.686,45.314 C19.574,46.204 20.466,46.754 21.52,47.16 C22.54,47.556 23.7,47.826 25.404,47.904 C27.11,47.984 27.654,48 32,48 C36.346,48 36.89,47.98 38.596,47.904 C40.3,47.824 41.462,47.556 42.48,47.16 C43.532,46.752 44.426,46.204 45.314,45.314 C46.204,44.426 46.754,43.534 47.16,42.48 C47.556,41.46 47.826,40.3 47.904,38.596 C47.984,36.89 48,36.346 48,32 C48,27.654 47.98,27.11 47.904,25.404 C47.824,23.7 47.556,22.538 47.16,21.52 C46.752,20.468 46.204,19.574 45.314,18.686 C44.426,17.796 43.534,17.246 42.48,16.84 C41.46,16.444 40.3,16.174 38.596,16.096 C36.89,16.016 36.346,16 32,16 Z M32,18.88 C36.272,18.88 36.78,18.9 38.466,18.976 C40.026,19.048 40.872,19.308 41.436,19.528 C42.184,19.818 42.716,20.164 43.276,20.724 C43.836,21.284 44.182,21.816 44.472,22.564 C44.692,23.128 44.952,23.974 45.024,25.534 C45.1,27.222 45.118,27.728 45.118,32 C45.118,36.272 45.098,36.78 45.022,38.466 C44.95,40.026 44.69,40.872 44.47,41.436 C44.18,42.184 43.834,42.716 43.274,43.276 C42.714,43.836 42.182,44.182 41.434,44.472 C40.87,44.692 40.024,44.952 38.464,45.024 C36.776,45.1 36.27,45.118 31.998,45.118 C27.726,45.118 27.218,45.098 25.532,45.022 C23.972,44.95 23.126,44.69 22.562,44.47 C21.814,44.18 21.282,43.834 20.722,43.274 C20.162,42.714 19.816,42.182 19.526,41.434 C19.306,40.87 19.046,40.024 18.974,38.464 C18.9,36.78 18.88,36.272 18.88,32 C18.88,27.728 18.9,27.22 18.976,25.534 C19.048,23.974 19.308,23.128 19.528,22.564 C19.818,21.816 20.164,21.284 20.724,20.724 C21.284,20.164 21.816,19.818 22.564,19.528 C23.128,19.308 23.974,19.048 25.534,18.976 C27.22,18.9 27.728,18.88 32,18.88 Z M32,23.784 C27.46,23.784 23.784,27.464 23.784,32 C23.784,36.54 27.464,40.216 32,40.216 C36.54,40.216 40.216,36.536 40.216,32 C40.216,27.46 36.536,23.784 32,23.784 L32,23.784 Z M32,37.334 C29.054,37.334 26.666,34.946 26.666,32 C26.666,29.054 29.054,26.666 32,26.666 C34.946,26.666 37.334,29.054 37.334,32 C37.334,34.946 34.946,37.334 32,37.334 Z M42.46,23.46 C42.46,24.52 41.6,25.38 40.54,25.38 C39.48,25.38 38.62,24.52 38.62,23.46 C38.62,22.4 39.48,21.54 40.54,21.54 C41.6,21.54 42.46,22.4 42.46,23.46 Z" id="instagram-icon" fill="#FFFFFF"></path>
                        </g>
                    </g>
                </g>
            </g>
        </g>
    </g>
</svg>