<?xml version="1.0" encoding="UTF-8"?>
<svg width="319px" height="63px" viewBox="0 0 319 63" version="1.1" xmlns="http://www.w3.org/2000/svg" xmlns:xlink="http://www.w3.org/1999/xlink">
    <!-- Generator: Sketch 42 (36781) - http://www.bohemiancoding.com/sketch -->
    <title>morehouse-logo</title>
    <desc>Created with Sketch.</desc>
    <defs></defs>
    <g id="Page-1" stroke="none" stroke-width="1" fill="none" fill-rule="evenodd">
        <g id="Desktop-HD" transform="translate(-28.000000, -32.000000)" fill-rule="nonzero">
            <g id="Hero">
                <g id="Left-Side">
                    <g id="morehouse-logo" transform="translate(28.000000, 32.000000)">
                        <g id="Logo-Text" transform="translate(188.561538, 36.369197) scale(-1, 1) rotate(180.000000) translate(-188.561538, -36.369197) translate(57.561538, 9.369197)" fill="#FFFFFF">
                            <g id="Group-3" transform="translate(187.895922, -0.000000)">
                                <path d="M9.65034297,2.53745659 C8.99754795,1.50161814 7.63536887,0.690558962 6.00843392,0.690558962 C3.0738879,0.690558962 0.877020457,2.91981306 0.877020457,5.9717129 C0.877020457,9.02593005 3.0738879,11.2551841 6.00843392,11.2551841 C7.23116143,11.2551841 8.55291976,10.7870871 9.41388161,9.66319084 L8.5387725,8.995805 C8.14871232,9.64928697 7.05128912,10.3189901 6.00843392,10.3189901 C3.47809534,10.3189901 1.9602964,8.28902485 1.9602964,5.9717129 C1.9602964,3.65903557 3.47809534,1.6290703 6.00843392,1.6290703 C7.03714186,1.6290703 8.09212328,1.96971516 8.8318229,3.13300576 L9.65034297,2.53745659" id="path12101"></path>
                                <path d="M17.4636728,0.690558962 C14.5311478,0.690558962 12.3342804,2.91981306 12.3342804,5.9717129 C12.3342804,9.02593005 14.5311478,11.2551841 17.4636728,11.2551841 C20.4002399,11.2551841 22.5950863,9.02593005 22.5950863,5.9717129 C22.5950863,2.91981306 20.4002399,0.690558962 17.4636728,0.690558962 Z M17.4636728,10.3189901 C14.9353553,10.3189901 13.4195774,8.28902485 13.4195774,5.9717129 C13.4195774,3.65903557 14.9353553,1.6290703 17.4636728,1.6290703 C19.9960324,1.6290703 21.5118103,3.65903557 21.5118103,5.9717129 C21.5118103,8.28902485 19.9960324,10.3189901 17.4636728,10.3189901 L17.4636728,10.3189901 Z" id="path12103"></path>
                                <polyline id="path12105" points="27.2677243 1.88397462 31.8554787 1.88397462 31.8554787 0.947780588 26.2652898 0.947780588 26.2652898 11.0002798 27.2677243 11.0002798 27.2677243 1.88397462"></polyline>
                                <polyline id="path12107" points="35.887448 1.88397462 40.4772235 1.88397462 40.4772235 0.947780588 34.8870345 0.947780588 34.8870345 11.0002798 35.887448 11.0002798 35.887448 1.88397462"></polyline>
                                <polyline id="path12109" points="44.5091927 1.88397462 49.7800577 1.88397462 49.7800577 0.947780588 43.5087793 0.947780588 43.5087793 11.0002798 49.6123116 11.0002798 49.6123116 10.0617685 44.5091927 10.0617685 44.5091927 6.64141605 49.2788405 6.64141605 49.2788405 5.70290471 44.5091927 5.70290471 44.5091927 1.88397462"></polyline>
                                <path d="M60.6936586,9.15338221 C60.0267163,9.87870085 59.0950182,10.3189901 57.8864379,10.3189901 C55.3540783,10.3189901 53.8383004,8.28902485 53.8383004,5.9717129 C53.8383004,3.65903557 55.3540783,1.6290703 57.8864379,1.6290703 C58.9009986,1.6290703 59.8731175,1.91178236 60.6107961,2.33816776 L60.6107961,5.70290471 L58.2603298,5.70290471 L58.2603298,6.64141605 L61.6112095,6.64141605 L61.6112095,1.71249353 C60.5117653,1.047425 59.0808709,0.690558962 57.8864379,0.690558962 C54.9518919,0.690558962 52.7550245,2.91981306 52.7550245,5.9717129 C52.7550245,9.02593005 54.9518919,11.2551841 57.8864379,11.2551841 C59.4426366,11.2551841 60.5683543,10.800991 61.4434634,9.90650859 L60.6936586,9.15338221" id="path12111"></path>
                                <polyline id="path12113" points="66.908348 1.88397462 72.1792131 1.88397462 72.1792131 0.947780588 65.9079346 0.947780588 65.9079346 11.0002798 72.011467 11.0002798 72.011467 10.0617685 66.908348 10.0617685 66.908348 6.64141605 71.6779958 6.64141605 71.6779958 5.70290471 66.908348 5.70290471 66.908348 1.88397462"></polyline>
                            </g>
                            <g id="Group-2" transform="translate(0.000000, 24.254950)">
                                <path d="M8.86744099,27.3912351 L20.210379,6.16786692 L31.4620258,27.3912351 L38.5184246,27.3912351 L38.5184246,26.8189707 C34.5057591,26.3272777 34.2298105,25.959541 34.3688222,21.4619967 L34.7837824,6.7401314 C34.9207193,2.20126836 35.059731,1.87485035 39.1180421,1.3831574 L39.1180421,0.810892924 L27.0821205,0.810892924 L27.0821205,1.3831574 C30.9557743,1.87485035 31.094786,2.20126836 31.0491403,6.7401314 L30.8624082,23.6291643 L30.6798257,23.6291643 L19.0588643,1.26126714 L18.5505381,1.26126714 L7.43790298,22.9350096 L7.34453693,22.9350096 L6.92957669,11.6467312 C6.74491939,7.39503335 6.92957669,5.14729416 7.15987962,3.878809 C7.43790298,2.36447736 8.543772,1.79221288 11.5418597,1.3831574 L11.5418597,0.810892924 L0.705173171,0.810892924 L0.705173171,1.3831574 C3.28830063,1.75089415 4.20951235,2.36447736 4.67011821,3.878809 C5.03943282,5.14729416 5.40874743,7.59956108 5.63905036,11.6467312 L6.09965622,20.2348302 C6.37767958,25.6744417 6.09965622,26.3272777 1.76539657,26.8189707 L1.76539657,27.3912351 L8.86744099,27.3912351" id="path12083"></path>
                                <path d="M55.4882233,28.0048184 C63.3745426,28.0048184 70.0139064,22.5238882 70.0139064,14.5101195 C70.0139064,5.96333918 63.3745426,0.199375646 54.5670116,0.199375646 C45.8051263,0.199375646 39.7176596,6.08729538 39.7176596,13.7333273 C39.7176596,20.6852045 44.9752058,28.0048184 55.4882233,28.0048184 Z M55.5815894,1.0959922 C61.0673637,1.0959922 65.5862807,5.34975596 65.5862807,12.9565351 C65.5862807,21.8710522 60.9304268,27.1040699 54.197697,27.1040699 C48.8011392,27.1040699 44.1452853,22.7304818 44.1452853,14.919175 C44.1452853,7.02523067 48.6642023,1.0959922 55.5815894,1.0959922 L55.5815894,1.0959922 Z" id="path12085"></path>
                                <path d="M78.63678,6.7401314 C78.63678,2.32315863 79.0060946,1.83353162 82.7884572,1.3831574 L82.7884572,0.810892924 L70.7981812,0.810892924 L70.7981812,1.3831574 C74.671835,1.83353162 75.0411496,2.32315863 75.0411496,6.7401314 L75.0411496,21.4619967 C75.0411496,25.8789694 74.671835,26.3685965 70.9828385,26.8189707 L70.9828385,27.3912351 L82.4647882,27.3912351 C85.3695098,27.3912351 87.9526373,27.0234984 89.7058443,26.0008597 C91.5482677,24.978221 92.7475028,23.1374714 92.7475028,20.765776 C92.7475028,17.4953981 90.3967531,14.9584278 86.5230993,13.5701183 C87.3073741,12.3429519 89.197518,9.562201 90.5814104,7.76277009 C92.1022396,5.80013018 93.3491952,4.40975474 94.7310127,2.97806058 C96.0215391,1.67032261 96.7601683,1.26126714 98.1440607,1.01542066 L98.098415,0.525793653 C97.5444431,0.525793653 96.7601683,0.565046451 95.3306303,0.689002656 C92.3781882,0.976167864 90.7183473,1.79221288 88.8282034,4.16597421 C86.9837052,6.49428492 85.3695098,9.11182679 83.9856175,11.1571042 C83.155697,12.3842706 82.2801309,12.6693699 80.6659356,12.6693699 L78.63678,12.6693699 L78.63678,6.7401314 L78.63678,6.7401314 Z M78.63678,13.4874808 L80.8049473,13.4874808 C82.9731145,13.4874808 84.7698923,13.6920086 86.0624934,14.5514382 C88.0439286,15.9418137 88.7369121,17.9457723 88.7369121,20.1935115 C88.7369121,24.6931218 85.3695098,26.5731242 81.5435765,26.5731242 C80.066318,26.5731242 79.4210549,26.4904867 79.0517403,26.3685965 C78.7757917,26.285959 78.63678,26.0814312 78.63678,25.2653862 L78.63678,13.4874808 L78.63678,13.4874808 Z" id="path12087"></path>
                                <path d="M103.723201,21.4619967 C103.723201,25.8789694 103.353886,26.3685965 99.6648899,26.8189707 L99.6648899,27.3912351 L119.678422,27.3912351 C119.726142,26.6950145 119.956445,23.7118018 120.186748,21.4206779 L119.493765,21.2987877 C118.848502,23.3419991 118.064227,24.4059565 117.418964,25.0587926 C116.728055,25.7550132 115.344162,26.4904867 111.839823,26.4904867 L108.79609,26.4904867 C107.503489,26.4904867 107.412198,26.4099152 107.412198,25.2653862 L107.412198,15.2869117 L112.070126,15.2869117 C116.035071,15.2869117 116.174083,15.6959672 117.097369,18.7225645 L117.788278,18.7225645 L117.788278,10.6261584 L117.097369,10.6261584 C116.636764,12.1797429 116.35874,13.0391725 115.713477,13.4874808 C115.068214,13.9791738 114.051561,14.0597453 112.070126,14.0597453 L107.412198,14.0597453 L107.412198,6.20918565 C107.412198,3.878809 107.690221,2.89748904 108.474496,2.36447736 C109.441353,1.71164135 111.101194,1.71164135 113.269361,1.71164135 C115.898134,1.71164135 118.064227,2.36447736 119.078805,3.34579732 C119.863079,4.0812708 120.693,5.47371217 121.753223,7.35371461 L122.446207,7.23182434 C122.213829,6.08729538 121.201326,1.91616909 120.832011,0.810892924 L99.2042841,0.810892924 L99.2042841,1.3831574 C103.353886,1.83353162 103.723201,2.32315863 103.723201,6.7401314 L103.723201,21.4619967" id="path12089"></path>
                                <path d="M148.960091,15.4501207 L148.960091,21.4619967 C148.960091,25.8789694 148.590776,26.3685965 144.90178,26.8189707 L144.90178,27.3912351 L156.892056,27.3912351 L156.892056,26.8189707 C153.018402,26.3685965 152.651162,25.8789694 152.651162,21.4619967 L152.651162,6.7401314 C152.651162,2.32315863 153.018402,1.83353162 156.800765,1.3831574 L156.800765,0.810892924 L144.532465,0.810892924 L144.532465,1.3831574 C148.590776,1.83353162 148.960091,2.32315863 148.960091,6.7401314 L148.960091,14.2229543 L132.774567,14.2229543 L132.774567,6.7401314 C132.774567,2.32315863 133.143882,1.83353162 136.924169,1.3831574 L136.924169,0.810892924 L124.935968,0.810892924 L124.935968,1.3831574 C128.716256,1.83353162 129.085571,2.32315863 129.085571,6.7401314 L129.085571,21.4619967 C129.085571,25.8789694 128.716256,26.3685965 124.749236,26.8189707 L124.749236,27.3912351 L136.741587,27.3912351 L136.741587,26.8189707 C133.143882,26.3685965 132.774567,25.8789694 132.774567,21.4619967 L132.774567,15.4501207 L148.960091,15.4501207" id="path12091"></path>
                                <path d="M173.446894,28.0048184 C181.331139,28.0048184 187.972577,22.5238882 187.972577,14.5101195 C187.972577,5.96333918 181.331139,0.199375646 172.523608,0.199375646 C163.761723,0.199375646 157.676331,6.08729538 157.676331,13.7333273 C157.676331,20.6852045 162.931802,28.0048184 173.446894,28.0048184 Z M173.538186,1.0959922 C179.026035,1.0959922 183.544952,5.34975596 183.544952,12.9565351 C183.544952,21.8710522 178.887023,27.1040699 172.154293,27.1040699 C166.75981,27.1040699 162.101882,22.7304818 162.101882,14.919175 C162.101882,7.02523067 166.620799,1.0959922 173.538186,1.0959922 L173.538186,1.0959922 Z" id="path12093"></path>
                                <path d="M200.377814,27.3912351 L200.377814,26.8189707 C196.686742,26.3685965 196.319503,25.8789694 196.319503,21.4619967 L196.319503,12.7933261 C196.319503,9.31635452 196.825754,6.69881266 198.255292,4.86012895 C199.68483,3.06069805 201.852997,2.03805935 205.079313,2.03805935 C208.077401,2.03805935 210.430225,3.26522578 211.905409,5.2278657 C213.428313,7.27107714 213.98021,10.869939 213.98021,14.3055918 L213.98021,16.5553969 C213.98021,20.8484135 213.749907,23.0568998 213.473959,24.3233191 C213.15029,25.7550132 211.905409,26.4904867 208.861676,26.8189707 L208.861676,27.3912351 L219.974311,27.3912351 L219.974311,26.8189707 C217.438904,26.5318055 216.239669,25.7550132 215.918074,24.3233191 C215.642126,23.0568998 215.225091,20.8484135 215.225091,16.5140782 L215.225091,13.774646 C215.225091,9.03125525 214.39517,5.67823991 211.720752,3.14126958 C209.737242,1.26126714 206.41756,0.199375646 203.512838,0.199375646 C201.162089,0.199375646 198.255292,0.730321391 196.134845,2.28390583 C193.736375,4.042018 192.630506,6.82276887 192.630506,11.4835222 L192.630506,21.4619967 C192.630506,25.8789694 192.261191,26.3685965 188.387538,26.8189707 L188.387538,27.3912351 L200.377814,27.3912351" id="path12095"></path>
                                <path d="M219.513705,8.0499353 C220.391346,6.16786692 222.972398,1.30258587 228.045287,1.30258587 C231.549626,1.30258587 233.809085,3.14126958 233.809085,6.53560366 C233.809085,10.6654112 230.074443,11.9752151 227.584681,13.1197441 C225.785829,13.937855 219.974311,15.8178575 219.974311,20.5219955 C219.974311,24.488594 223.341713,28.0048184 229.337888,28.0048184 C231.964587,28.0048184 233.485416,27.3499164 234.869308,27.0648171 C235.053966,25.633123 235.329914,23.9969011 235.699229,21.5033154 L235.00832,21.3793592 C233.993742,23.8750108 232.60985,27.0234984 228.321236,27.0234984 C224.771251,27.0234984 223.157056,24.8976495 223.157056,22.3193604 C223.157056,19.294829 225.785829,17.8218161 229.290168,16.390122 C232.703216,15.0431312 237.128767,13.2829531 237.128767,8.41767204 C237.128767,3.83749026 232.794507,0.27994718 226.985064,0.199375646 C225.325223,0.27994718 223.756673,0.565046451 222.648729,0.893530394 C221.497215,1.2199484 220.71294,1.54636641 220.204614,1.75089415 C219.789653,2.81485157 219.283402,5.71749271 218.822796,7.88672629 L219.513705,8.0499353" id="path12097"></path>
                                <path d="M242.709982,21.4619967 C242.709982,25.8789694 242.340667,26.3685965 238.651671,26.8189707 L238.651671,27.3912351 L258.665203,27.3912351 C258.710849,26.6950145 258.941152,23.7118018 259.171455,21.4206779 L258.480546,21.2987877 C257.835283,23.3419991 257.051008,24.4059565 256.405745,25.0587926 C255.712761,25.7550132 254.328869,26.4904867 250.824529,26.4904867 L247.782871,26.4904867 C246.49027,26.4904867 246.396904,26.4099152 246.396904,25.2653862 L246.396904,15.2869117 L251.054832,15.2869117 C255.021852,15.2869117 255.160864,15.6959672 256.082076,18.7225645 L256.772984,18.7225645 L256.772984,10.6261584 L256.082076,10.6261584 C255.62147,12.1797429 255.343446,13.0391725 254.698183,13.4874808 C254.05292,13.9791738 253.038342,14.0597453 251.054832,14.0597453 L246.396904,14.0597453 L246.396904,6.20918565 C246.396904,3.878809 246.674927,2.89748904 247.459202,2.36447736 C248.428134,1.71164135 250.087975,1.71164135 252.254067,1.71164135 C254.88284,1.71164135 257.051008,2.36447736 258.065585,3.34579732 C258.84986,4.0812708 259.679781,5.47371217 260.740004,7.35371461 L261.430913,7.23182434 C261.20061,6.08729538 260.186032,1.91616909 259.818792,0.810892924 L238.191065,0.810892924 L238.191065,1.3831574 C242.340667,1.83353162 242.709982,2.32315863 242.709982,6.7401314 L242.709982,21.4619967" id="path12099"></path>
                            </g>
                        </g>
                        <g id="Graves-Hall-Cupola" transform="translate(0.000000, -0.000000)">
                            <g id="Group">
                                <g id="Shape">
                                    <path d="M48.2665057,21.9500769 C47.1707407,12.1117681 39.9475446,3.72463262 30.4104144,1.28280261 C28.9271118,0.90328598 27.3932214,0.725814176 25.8828183,0.454600854 L22.668243,0.454600854 C22.4500837,0.494645774 22.2332795,0.551982818 22.0133134,0.571550222 C18.3303506,0.899645533 14.893551,2.00907184 11.7449205,3.95580102 C1.10389515,10.5345443 -2.88214197,23.522295 2.19152998,35.0129118 C7.74262304,47.5842864 23.2350959,52.9921708 35.32871,46.5795229 C44.4146162,41.761846 49.41331,32.2466269 48.2665057,21.9500769 Z M3.88666849,34.2265752 C3.93409443,32.8400198 5.20014112,31.7005598 6.63014605,31.7574418 C7.69926218,31.799762 8.4522054,32.6184076 8.41652302,33.7005306 C8.37225882,35.0461309 7.09356521,36.2361021 5.73989345,36.1919617 C4.63916003,36.1560122 3.84917941,35.3187094 3.88666849,34.2265752 Z M4.72136499,37.0133376 C5.69562924,36.8790961 6.66944183,36.7425793 7.64370608,36.6106131 C8.65997617,36.4731862 9.67714961,36.3434953 10.692968,36.2042482 C11.7029146,36.0659112 12.7119579,35.9193832 13.8908312,35.7523776 C11.3054401,33.5963227 8.82935452,31.530824 6.3090047,29.4293758 C5.12425962,30.6880604 3.9697768,31.9144361 2.81529398,33.1408118 C2.76109291,33.1112331 2.70734351,33.0816545 2.65314244,33.0520759 C2.69921335,32.9141939 2.70734351,32.7412727 2.79677528,32.6443458 C3.93319107,31.4106892 5.08135044,30.187954 6.27061228,28.9156177 C9.06829091,31.246414 11.8451925,33.5599183 14.787859,36.0117595 C11.3266689,36.4763716 8.05202082,36.9155006 4.77737276,37.3550846 C4.75885406,37.2408655 4.74033536,37.1271015 4.72136499,37.0133376 Z M5.33970888,38.2219661 C8.43413837,37.8119607 11.5285679,37.4019553 14.6229974,36.9919499 C14.6311275,37.0529274 14.6397094,37.11436 14.6478395,37.1753375 C11.55341,37.5857979 8.45898053,37.9967134 5.36455103,38.4071738 C5.35642087,38.3457413 5.34783904,38.2838537 5.33970888,38.2219661 Z M10.5674022,43.5406595 C10.015003,43.1001654 9.54164693,42.722469 8.92827147,42.2328289 C9.59042789,42.144093 10.0579121,42.0817503 10.5674022,42.0134919 L10.5674022,43.5406595 Z M21.9451104,48.0234153 C20.7852075,47.8022581 19.6713755,47.6256964 18.5765138,47.3695 C17.7987285,47.1874776 17.0521087,46.873489 16.2788401,46.6655285 C15.8276162,46.5440285 15.7711567,46.2227591 15.8732354,45.8996694 C15.9287915,45.7235627 16.2070237,45.5319842 16.4066643,45.5033157 C18.0390199,45.2694169 19.6763439,45.0696474 21.3132163,44.8666925 C21.5065334,44.8425745 21.7052707,44.8635071 21.9446587,44.8635071 C21.9451104,45.888293 21.9451104,46.8871407 21.9451104,48.0234153 Z M15.8831723,42.7110926 C15.8831723,41.3195316 15.8831723,41.3163463 17.2490393,41.1224924 C17.7323322,41.053779 18.2178834,41.0037228 18.771186,40.9368296 C18.771186,42.193694 18.7842846,43.3577271 18.7553774,44.52085 C18.7513123,44.6769341 18.5530267,44.9399565 18.4139106,44.9631643 C17.604508,45.0964957 16.7860718,45.1729451 15.8831723,45.2789731 L15.8831723,42.7110926 Z M21.9663392,44.2400805 C21.9640808,44.3529343 21.7680536,44.5399623 21.6415844,44.5595297 C20.8543139,44.6819398 20.0611715,44.7661251 19.1980195,44.8716981 C19.1980195,43.5975415 19.1849209,42.4335085 19.2138281,41.2712957 C19.2178932,41.1174868 19.4202439,40.8612903 19.5629733,40.8362623 C20.3267568,40.7024758 21.1004771,40.6269365 21.9807928,40.5177231 C21.9812445,41.7959752 21.9898263,43.0182554 21.9663392,44.2400805 Z M24.2626579,40.4808636 C24.2649163,40.3730154 24.4785588,40.1969087 24.6122548,40.1764312 C25.4221091,40.0517459 26.2373836,39.96301 27.203066,39.8433303 C27.203066,41.1406947 27.2098412,42.3820872 27.1899674,43.6230247 C27.1886124,43.7204066 27.0129106,43.8837717 26.9017984,43.9001537 C26.0503899,44.0234739 25.1944646,44.1181255 24.2463976,44.2327996 C24.2468493,42.9299745 24.2378157,41.704964 24.2626579,40.4808636 Z M30.5016529,46.9435676 C30.4989428,47.0627923 30.3114975,47.2466349 30.1782532,47.2834944 C28.2825707,47.8086289 26.3516575,48.0793872 24.2725948,48.0766568 C24.2725948,46.9417474 24.2631096,45.8910233 24.28479,44.8412093 C24.2875001,44.7128836 24.4455865,44.4908163 24.553537,44.4762545 C26.4898703,44.2164176 28.4298169,43.9816087 30.5165582,43.723592 C30.5161065,44.8521307 30.5269467,45.8983042 30.5016529,46.9435676 Z M27.6335129,40.0649425 C27.6353196,39.9566392 27.7897926,39.7718865 27.8932263,39.7564146 C28.703984,39.6330944 29.5197101,39.5425383 30.4086077,39.4324148 L30.4086077,43.4646652 C29.5364221,43.5761539 28.6407494,43.6903729 27.6217693,43.8205189 C27.6217693,42.5181489 27.6149942,41.2913182 27.6335129,40.0649425 Z M35.7736104,39.0984037 C35.7758688,38.9655274 35.9750577,38.7471006 36.1110121,38.7216175 C36.6954803,38.612404 37.2898854,38.5605277 37.9841108,38.4749772 L37.9841108,42.9864014 C37.3007256,43.0705868 36.6001768,43.1565924 35.7587051,43.2603451 C35.7582534,41.8228235 35.7487683,40.459931 35.7736104,39.0984037 Z M35.8517503,44.9326756 C35.8517503,44.4626028 35.8205847,44.1536198 35.8662039,43.8569234 C35.8860776,43.7295077 36.0522943,43.5479404 36.1746983,43.5270079 C36.7803953,43.4246203 37.3937708,43.3681933 38.0044362,43.2953844 C38.0211482,43.3495361 38.0383118,43.4032327 38.0550238,43.4573843 C37.3653152,43.9197211 36.6751549,44.3816029 35.8517503,44.9326756 Z M40.5053639,41.1411497 C40.5017505,41.2867676 40.3423091,41.452863 40.2171949,41.566627 C39.6869278,42.0494413 39.1417553,42.5158736 38.6024547,42.9886767 C38.5405751,42.9518172 38.4786956,42.9145026 38.4163643,42.8776431 L38.4163643,38.408994 C39.057292,38.3298143 39.7113182,38.2488144 40.5189142,38.1487021 C40.5189142,39.1921453 40.5311095,40.1673301 40.5053639,41.1411497 Z M41.4502693,40.3179536 C41.4010366,40.3056671 41.351804,40.2929255 41.3025714,40.280639 C41.2709541,39.6285439 41.2226248,38.9764488 41.2230765,38.3243536 C41.2230765,38.2137751 41.4209104,38.0272021 41.5487346,38.0058145 C42.091197,37.9138932 42.6417895,37.871118 43.1892203,37.8101405 C43.2181276,37.863382 43.2465831,37.9161685 43.2754904,37.96941 C42.667535,38.7525613 42.059128,39.5352574 41.4502693,40.3179536 Z M43.394281,36.4072031 C40.3124985,36.7225568 37.2447178,37.1789779 34.1719688,37.5830676 C33.929419,37.6149215 33.6891276,37.6631574 33.4230906,37.7077529 L33.4230906,42.0931267 L33.4230906,46.3319725 C33.3368206,46.3342478 33.2505505,46.336068 33.1642805,46.3383433 C33.105111,43.5088056 33.0459415,40.679723 32.9849653,37.757809 C31.8986855,37.8925056 30.8688651,38.0140055 29.8403998,38.148247 C24.4234544,38.8544938 19.0074124,39.5702967 13.5886603,40.2633469 C13.0981406,40.3261446 12.8971449,40.4749479 12.9156636,41.0082734 C12.9563144,42.1759469 12.9314723,43.3458956 12.9283105,44.5149342 C12.9274072,44.7533835 12.9043717,44.9913778 12.7571255,45.237108 C12.5317394,44.4657882 12.5985874,43.6703505 12.5863921,42.8844689 C12.5737452,42.0817503 12.5836821,41.2785766 12.5836821,40.4135153 C11.1721958,40.5973579 9.85059304,40.777105 8.52673187,40.940015 C7.55833939,41.0592397 7.43638698,40.9814251 6.91108827,39.9998695 C19.5652317,38.3320896 32.1990498,36.66704 44.8843588,34.9947096 C44.6241937,35.7969731 44.3473165,36.3093661 43.394281,36.4072031 Z M17.1094715,36.6561187 C17.4884273,36.9751129 17.941458,37.3564497 18.5616085,37.8788539 C17.3655716,38.0358482 16.3560766,38.1678144 15.1473927,38.3266289 C15.4183981,37.7123034 15.6198454,37.2545172 15.8217444,36.796731 C15.8614918,36.813113 15.9012393,36.829495 15.9409867,36.8454219 C15.7761252,37.2404105 15.6112636,37.6349439 15.4283349,38.0736178 C16.6203068,38.2474492 16.2783884,36.8877421 17.1094715,36.6561187 Z M30.7252323,35.5039171 C30.7573013,35.4980014 30.7898219,35.4920857 30.8218909,35.4861699 C30.8819637,35.6800238 30.9420366,35.8738776 31.0283066,36.1510066 C29.8675003,36.3111863 28.7776071,36.4613548 27.5187873,36.6351861 C28.0088553,35.9157427 28.4153633,35.3191644 28.8860093,34.6283895 C29.2134741,34.9892489 29.5788796,35.2390746 29.7198024,35.5821867 C29.9506087,36.145546 30.2798802,36.1896864 30.7857568,35.9981078 C30.7658831,35.8356529 30.7455577,35.6700125 30.7252323,35.5039171 Z M25.3390008,35.5121081 C25.7405404,35.8483944 26.1944744,36.2279111 26.782556,36.7198265 C25.599166,36.8790961 24.5797342,37.016523 23.3972475,37.1762476 C23.6298604,36.6074277 23.8136924,36.1582875 23.9975243,35.7091473 C24.0413369,35.7259844 24.0851494,35.7428215 24.1289619,35.7592035 C23.9835224,36.1146022 23.8380828,36.4695458 23.6678011,36.8859219 C24.8439644,37.0611184 24.5318566,35.6995912 25.3390008,35.5121081 Z M25.4681801,35.1316814 C26.0038673,34.8722995 26.4243773,34.6684345 26.9234788,34.4267998 L26.9234788,36.3471357 C26.4121821,35.9198382 25.9988989,35.5749058 25.4681801,35.1316814 Z M17.5010743,27.7602307 L17.5010743,25.4321647 C21.1930706,24.9102155 24.7802781,24.4032833 28.4230418,23.888615 L28.4230418,26.2294226 C24.7866016,26.7386302 21.1637116,27.2464726 17.5010743,27.7602307 Z M17.8050519,35.2008499 C18.6745274,34.7671816 19.5711035,34.5974457 20.589632,34.932822 C20.0602682,34.932822 19.598204,34.8932321 19.1465284,34.9441984 C18.6957562,34.9947096 18.2549208,35.136687 17.8050519,35.2008499 Z M18.6767858,35.5835519 L18.6767858,37.4570171 C18.194848,37.0702196 17.7761447,36.7339332 17.220132,36.2879785 C17.757626,36.0281415 18.1668441,35.8301922 18.6767858,35.5835519 Z M19.1243963,35.5385014 C19.4898019,35.5808216 19.8263002,35.6195013 20.2951395,35.674108 C19.8940515,36.2570346 19.5625217,36.7389389 19.1243963,37.3760171 L19.1243963,35.5385014 Z M20.6768054,35.7546529 C21.1122206,36.2975346 21.4749161,36.7498602 21.9017496,37.2813655 C22.0435757,37.2540621 22.293804,37.2058262 22.6059118,37.1457588 C22.4875728,36.8181186 22.3927209,36.5569165 22.2983207,36.2957144 C22.3308414,36.2834279 22.3638137,36.2706863 22.3963343,36.2583998 C22.5340954,36.5637423 22.6723081,36.8686298 22.8669803,37.3000228 C21.668685,37.4620227 20.5968588,37.6071855 19.2964847,37.7832922 C19.7969413,37.0483769 20.184479,36.4781918 20.6768054,35.7546529 Z M27.3480539,34.477311 L28.5346057,34.477311 C28.1312594,35.0761646 27.8105697,35.5512429 27.4903317,36.0267764 C27.4429058,36.0081191 27.3954798,35.9894618 27.3480539,35.9708045 L27.3480539,34.477311 Z M28.4451739,22.6117281 C28.4501423,23.025829 28.3367718,23.2010255 27.9072283,23.2597278 C24.5711523,23.7152387 21.2377864,24.1948677 17.9039689,24.6658505 C17.7955667,24.6813224 17.6858096,24.6845078 17.523658,24.6981595 C17.2531044,23.6583567 17.978947,22.3000148 16.4671888,21.6797736 C20.2517786,18.2086072 25.6131679,17.433647 29.3760773,19.8868534 C28.1642317,20.4975384 28.432527,21.601504 28.4451739,22.6117281 Z M31.8295791,34.9036984 C31.8155772,34.8418108 31.8015752,34.7794681 31.7875733,34.7175805 C36.42583,34.1096258 41.0640867,33.5012161 45.7023433,32.8932614 C45.7104735,32.955149 45.7186037,33.0165815 45.7267338,33.0784691 C41.0943489,33.6864238 36.461964,34.2952886 31.8295791,34.9036984 Z M40.4809735,24.5725641 C37.8391229,27.4444219 35.2239212,30.2862461 32.4718618,33.2773286 C37.1765148,32.6479862 41.6896574,32.043672 46.2023482,31.4398128 C46.2177052,31.555852 46.2326105,31.6718913 46.2479674,31.7874755 C41.4091668,32.4432111 36.5703662,33.0989466 31.7315655,33.7546822 C31.7049167,33.7096317 31.6787195,33.6645811 31.6520706,33.6199857 C34.5676366,30.4505212 37.4827509,27.2810568 40.3874766,24.1234239 C41.7307598,24.8355864 46.7204201,28.7590784 46.8712798,29.3765893 C44.6702646,27.721551 42.5988803,26.1643496 40.4809735,24.5725641 Z M43.0144219,28.9606682 C43.0252621,30.3153696 41.775024,31.4966948 40.3274038,31.4994251 C39.0731006,31.5017004 38.182848,30.6825998 38.1715561,29.5167465 C38.1584576,28.1556743 39.3879185,26.9761694 40.8409589,26.9552368 C42.0302207,26.9379447 43.0053884,27.8380453 43.0144219,28.9606682 Z M47.0320763,27.4817365 C44.8206726,25.8289734 42.6431445,24.2016935 40.3942517,22.520717 C37.4317115,25.7302263 34.4782048,28.9297244 31.4302979,32.2316101 L31.4302979,22.0233409 C31.6845913,21.9732847 31.9447564,21.9218634 32.2649944,21.8590657 L32.2649944,16.2768948 C26.2690009,17.1674392 20.2955912,18.0547983 14.2354597,18.9548989 L14.2354597,24.3709743 L14.9034879,24.3709743 L14.9034879,34.5223615 C12.0398646,32.1160259 9.26296309,29.7824992 6.42463365,27.3970961 C5.05334655,28.8578256 3.69922312,30.2998977 2.32883936,31.759262 C0.0799465802,25.7006477 0.698742144,15.3076257 8.49014615,7.91751777 C16.0602291,0.737190573 27.6886173,-0.399084033 36.5247469,5.24588453 C45.5401918,11.0050721 48.0813187,21.0040156 47.0320763,27.4817365 Z" fill="#282828"></path>
                                    <path d="M36.5247469,5.24542947 C27.6886173,-0.399539089 16.0602291,0.736735518 8.49014615,7.91706271 C0.698742144,15.3076257 0.0794949046,25.7006477 2.32883936,31.758807 C3.69922312,30.2994427 5.05289487,28.8573705 6.42463365,27.396641 C9.26341476,29.7820441 12.0403163,32.1155708 14.9034879,34.5219065 L14.9034879,24.3705192 L14.2354597,24.3705192 L14.2354597,18.9544438 C20.2955912,18.0543432 26.2690009,17.1669842 32.2649944,16.2764398 L32.2649944,21.8586106 C31.9447564,21.9218634 31.6845913,21.9728296 31.4302979,22.0228858 L31.4302979,32.231155 C34.4777531,28.9297244 37.4312598,25.7297712 40.3942517,22.5202619 C42.6431445,24.2012384 44.8206726,25.8285184 47.0320763,27.4812814 C48.0813187,21.0040156 45.5401918,11.0050721 36.5247469,5.24542947 Z M24.2888551,4.23657052 C25.3141587,3.97991898 26.0856206,4.15511551 26.7473253,4.99241838 C27.0467863,5.37147996 27.4501326,5.66772135 27.8060529,6.00173239 C27.3823812,6.45223774 27.0038771,6.40991754 26.6759606,5.97761443 C25.9225657,4.98422738 24.9993408,4.77308144 23.8123373,5.12984527 C22.9017593,5.40333387 21.922075,5.43473273 20.9866548,5.63768766 C20.4970385,5.74371569 20.2102245,5.65771012 20.0738184,5.03519364 C21.4965966,4.77308144 22.9116962,4.58104784 24.2888551,4.23657052 Z M12.5683251,16.8507203 C15.1758483,13.4833066 17.7797581,10.1127075 20.4089617,6.76258587 C20.6018272,6.51685568 20.9631677,6.33392321 21.2761789,6.26885021 C22.4767326,6.01947957 23.6863198,5.81015385 24.8995205,5.63359216 C25.1673641,5.59445735 25.5562568,5.65497979 25.732862,5.83017631 C28.3878111,8.46495003 31.0165631,11.1270271 33.6502834,13.7836435 C33.7085496,13.8423457 33.7487487,13.9192502 33.845859,14.0548568 C26.644795,15.1392551 19.5114823,16.2136421 12.2896412,17.3012257 C12.4129487,17.100091 12.4788933,16.9663045 12.5683251,16.8507203 Z M32.8282339,15.390901 C34.132673,17.7553715 35.4366604,20.119842 36.7410995,22.4843125 C36.6561845,22.5316383 36.5712695,22.5785091 36.4868062,22.6258349 C35.1755919,20.2650048 33.8643777,17.9041748 32.5536151,15.5433447 C32.6448536,15.4923784 32.7365437,15.4418672 32.8282339,15.390901 Z M13.8226282,20.8775101 C13.0687816,19.8094939 12.4251439,18.8975618 11.7065281,17.8800568 C12.2598307,17.7940512 12.7223465,17.7221524 13.2508069,17.6402423 L13.2508069,18.9972191 C13.4947117,19.045455 13.6573149,19.0773089 13.8226282,19.1100729 L13.8226282,20.8775101 Z M13.694804,18.6977923 C13.4793548,17.58063 13.4856782,17.5455907 14.4531673,17.4008829 C20.31953,16.5235351 26.1872476,15.6557435 32.0545136,14.7861317 C32.1181998,14.7765755 32.1845961,14.7847665 32.3160337,14.7847665 L32.3160337,15.9310523 C26.0964608,16.8557259 19.8935999,17.7772142 13.694804,18.6977923 Z M35.8359416,26.8232706 C35.2356648,26.1124733 34.6376463,25.4044063 34.0183991,24.6708561 C33.6024058,25.9877879 34.1859707,26.8815177 35.1362962,27.6605735 C34.0193024,28.8760278 32.9637365,30.0241339 31.8033819,31.286914 L31.8033819,22.3687283 C32.0644504,22.2977396 32.3566845,22.2181048 32.7053781,22.1229981 L32.7053781,16.6973665 C32.750094,16.6837148 32.7948099,16.6700631 32.8395258,16.6568665 C33.4705166,17.7753939 34.1042174,18.8925562 34.7320465,20.0129038 C35.2135327,20.8720494 35.6498513,21.7603185 36.1778601,22.5894304 C36.6037902,23.2579075 36.7049655,23.9705251 36.8264662,24.7291033 C36.9836493,25.7097488 36.5577192,26.2922203 35.8359416,26.8232706 Z M37.1394774,22.0360824 C36.9985546,22.0447285 36.7776853,21.9437061 36.7121923,21.8258466 C35.4199484,19.49323 34.1448682,17.1510572 32.868433,14.8097946 C32.8616579,14.7975081 32.8824349,14.7697497 32.9203757,14.6700924 C33.3327555,14.6113902 33.7866895,14.5240195 34.2442369,14.4948959 C34.3815462,14.4862498 34.5956405,14.6022891 34.6615851,14.723789 C35.937117,17.0627764 37.1959369,19.4108649 38.5085061,21.8513297 C37.9994677,21.9245937 37.5712793,22.0092341 37.1394774,22.0360824 Z" fill="#FFFFFF"></path>
                                    <path d="M8.52673187,40.93956 C9.85059304,40.7766499 11.1726475,40.5969029 12.5836821,40.4130603 C12.5836821,41.2781216 12.5737452,42.0812952 12.5863921,42.8840139 C12.5985874,43.6698954 12.5317394,44.4653331 12.7571255,45.2366529 C12.9043717,44.9909227 12.9274072,44.7529285 12.9283105,44.5144792 C12.9314723,43.3454406 12.9567661,42.1754918 12.9156636,41.0078183 C12.8971449,40.4744928 13.0981406,40.3256895 13.5886603,40.2628918 C19.0074124,39.5698417 24.4230027,38.8544938 29.8403998,38.147792 C30.8688651,38.0135505 31.8986855,37.8920505 32.9849653,37.757354 C33.0459415,40.679268 33.105111,43.5088056 33.1642805,46.3378882 C33.2505505,46.3356129 33.3368206,46.3337927 33.4230906,46.3315174 L33.4230906,42.0926716 L33.4230906,37.7072978 C33.6891276,37.6627024 33.929419,37.6144664 34.1719688,37.5826125 C37.2447178,37.1785229 40.3124985,36.7221018 43.394281,36.406748 C44.3473165,36.3093661 44.6241937,35.7969731 44.8843588,34.9942545 C32.1990498,36.6661299 19.5652317,38.3311795 6.91108827,39.9994145 C7.43638698,40.9814251 7.55833939,41.0587846 8.52673187,40.93956 Z" fill="#FFFFFF"></path>
                                    <path d="M16.4667371,21.6797736 C17.9784954,22.3000148 17.252201,23.6583567 17.5232064,24.6981595 C17.6853579,24.6849629 17.7955667,24.6813224 17.9035172,24.6658505 C21.2377864,24.1948677 24.5707007,23.7152387 27.9067766,23.2597278 C28.3363201,23.2010255 28.4496907,23.025829 28.4447222,22.6117281 C28.432527,21.601504 28.16378,20.4975384 29.3756256,19.8868534 C25.6127162,17.433647 20.2517786,18.2086072 16.4667371,21.6797736 Z M27.4971068,20.2845722 C24.8688065,19.0968763 22.3168394,19.5642187 19.8448189,20.8083416 C19.0909723,21.1878582 18.3877134,21.6693074 17.6144448,22.1320992 C17.4531966,21.9946723 17.2558144,21.8263016 17.0539154,21.6542905 C20.1993843,18.7592248 25.2030465,17.8231748 28.7356013,19.9014151 C28.4397538,20.5398586 28.0784133,20.5471395 27.4971068,20.2845722 Z" fill="#FFFFFF"></path>
                                    <path d="M28.4230418,23.88816 C24.8182189,24.3973675 21.2124926,24.9070302 17.5010743,25.4317096 L17.5010743,27.7597757 C21.1641633,27.2464726 24.7866016,26.7386302 28.4230418,26.2289676 L28.4230418,23.88816 Z" fill="#FFFFFF"></path>
                                    <path d="M24.553537,44.4771646 C24.4455865,44.4917264 24.2875001,44.7137937 24.28479,44.8421194 C24.2631096,45.8919334 24.2725948,46.9422025 24.2725948,48.077567 C26.3512058,48.0798422 28.282119,47.809084 30.1782532,47.2844045 C30.3119491,47.247545 30.4989428,47.0637024 30.5016529,46.9444777 C30.5269467,45.8992143 30.5165582,44.8530408 30.5165582,43.7249572 C28.4298169,43.9825188 26.4898703,44.2168726 24.553537,44.4771646 Z" fill="#FFFFFF"></path>
                                    <path d="M21.3136679,44.8662374 C19.6767956,45.0691923 18.0394716,45.2685068 16.407116,45.5028606 C16.2074753,45.5315291 15.9292432,45.7235627 15.8736871,45.8992143 C15.7716084,46.222304 15.8280679,46.5435735 16.2792918,46.6650734 C17.0521087,46.873489 17.7991801,47.1870225 18.5769655,47.3690449 C19.6718272,47.6252414 20.7852075,47.8018031 21.9455621,48.0229602 L21.9455621,44.862597 C21.7057224,44.863052 21.5069851,44.8421194 21.3136679,44.8662374 Z" fill="#FFFFFF"></path>
                                    <path d="M40.3879283,24.1234239 C37.4832025,27.2810568 34.5680883,30.4505212 31.6525223,33.6199857 C31.6791712,33.6650362 31.7053683,33.7100867 31.7320172,33.7546822 C36.5708178,33.0989466 41.4096185,32.4432111 46.2484191,31.7874755 C46.2330622,31.6714362 46.2181569,31.555397 46.2027999,31.4398128 C41.690109,32.043672 37.1769665,32.6475312 32.4723135,33.2773286 C35.2243729,30.2862461 37.8391229,27.4439668 40.4814251,24.5725641 C42.599332,26.1648047 44.6702646,27.721551 46.8721831,29.3765893 C46.7208718,28.7590784 41.7312115,24.8355864 40.3879283,24.1234239 Z" fill="#FFFFFF"></path>
                                    <path d="M27.1904191,43.6234797 C27.2102928,42.3825422 27.2035177,41.1411497 27.2035177,39.8437853 C26.2378353,39.963465 25.4225608,40.0522009 24.6127065,40.1768863 C24.4785588,40.1973638 24.2649163,40.3734704 24.2631096,40.4813187 C24.2382674,41.7054191 24.2473009,42.9299745 24.2473009,44.2332546 C25.195368,44.1185805 26.0508416,44.0239289 26.9027017,43.9006088 C27.0133623,43.8842268 27.1890641,43.7208617 27.1904191,43.6234797 Z" fill="#FFFFFF"></path>
                                    <path d="M18.7553774,44.52085 C18.7842846,43.3577271 18.771186,42.193694 18.771186,40.9368296 C18.2178834,41.0037228 17.7323322,41.053779 17.2490393,41.1224924 C15.8831723,41.3163463 15.8831723,41.3195316 15.8831723,42.7110926 L15.8831723,45.2789731 C16.7860718,45.1729451 17.604508,45.0964957 18.4139106,44.9631643 C18.5530267,44.9399565 18.751764,44.6773892 18.7553774,44.52085 Z" fill="#FFFFFF"></path>
                                    <path d="M30.4086077,39.4324148 C29.5197101,39.5425383 28.703984,39.6330944 27.8932263,39.7564146 C27.7897926,39.7723416 27.6353196,39.9566392 27.6335129,40.0649425 C27.6149942,41.2913182 27.6217693,42.5181489 27.6217693,43.8205189 C28.6407494,43.6903729 29.5364221,43.5761539 30.4086077,43.4646652 L30.4086077,39.4324148 Z" fill="#FFFFFF"></path>
                                    <path d="M19.563425,40.8362623 C19.4211472,40.8612903 19.2183449,41.1174868 19.2142798,41.2712957 C19.1849209,42.4339636 19.1984711,43.5975415 19.1984711,44.8716981 C20.0611715,44.7661251 20.8543139,44.6814847 21.6420361,44.5595297 C21.7685053,44.5399623 21.9645325,44.3529343 21.9667909,44.2400805 C21.990278,43.0182554 21.9816961,41.7959752 21.9816961,40.5181782 C21.1004771,40.6273916 20.3267568,40.7029309 19.563425,40.8362623 Z" fill="#FFFFFF"></path>
                                    <path d="M37.9836591,38.4745221 C37.2898854,38.5600726 36.6950286,38.611949 36.1105604,38.7211624 C35.9746061,38.7466455 35.7758688,38.9650724 35.7731587,39.0979487 C35.7483166,40.459931 35.7578018,41.8223684 35.7578018,43.25989 C36.5992734,43.1561373 37.2998223,43.0701317 37.9832074,42.9859464 C37.9836591,41.4410316 37.9836591,39.995774 37.9836591,38.4745221 Z" fill="#FFFFFF"></path>
                                    <path d="M6.27061228,28.9151626 C5.08135044,30.1874989 3.93319107,31.4102342 2.79677528,32.6438907 C2.70734351,32.7408176 2.69921335,32.9137389 2.65314244,33.0516208 C2.70734351,33.0811995 2.76109291,33.1107781 2.81529398,33.1403567 C3.9697768,31.913981 5.12380794,30.6876054 6.3090047,29.4289207 C8.82935452,31.530824 11.3054401,33.5958677 13.8908312,35.7519226 C12.7119579,35.9189281 11.7029146,36.0650011 10.692968,36.2037931 C9.67714961,36.3430402 8.65997617,36.4727312 7.64370608,36.610158 C6.66944183,36.7421242 5.69562924,36.878641 4.72136499,37.0128825 C4.74033536,37.1266465 4.75885406,37.2404105 4.77782444,37.3541744 C8.05247249,36.9145904 11.3266689,36.4754615 14.7883106,36.0108494 C11.8451925,33.5594632 9.06829091,31.245959 6.27061228,28.9151626 Z" fill="#FFFFFF"></path>
                                    <path d="M38.4163643,38.408994 L38.4163643,42.8776431 C38.4782439,42.9145026 38.5401234,42.9518172 38.6024547,42.9886767 C39.142207,42.5163287 39.6869278,42.0494413 40.2171949,41.566627 C40.3427607,41.452408 40.5017505,41.2867676 40.5053639,41.1411497 C40.5311095,40.166875 40.5184625,39.1921453 40.5184625,38.1487021 C39.7108666,38.2488144 39.057292,38.3293593 38.4163643,38.408994 Z" fill="#FFFFFF"></path>
                                    <path d="M38.1720078,29.5167465 C38.1832997,30.6830548 39.0735523,31.5017004 40.3278554,31.4994251 C41.7754757,31.4971498 43.0257138,30.3153696 43.0148735,28.9606682 C43.00584,27.8375902 42.0306724,26.9379447 40.8418623,26.9547817 C39.3879185,26.9761694 38.1584576,28.1556743 38.1720078,29.5167465 Z M42.6336593,29.0425783 C42.6074622,30.1724821 41.5040187,31.1531276 40.2759127,31.1376557 C39.2831298,31.1253692 38.5225081,30.415937 38.5161846,29.496269 C38.5085061,28.3672753 39.6724741,27.298349 40.8883848,27.3174613 C41.9014932,27.3329332 42.6562431,28.0787698 42.6336593,29.0425783 Z" fill="#FFFFFF"></path>
                                    <path d="M8.41652302,33.7005306 C8.4522054,32.6184076 7.69926218,31.799762 6.63014605,31.7574418 C5.20014112,31.7010149 3.93409443,32.8400198 3.88666849,34.2265752 C3.84917941,35.3187094 4.63870835,36.1560122 5.73989345,36.1919617 C7.09356521,36.2361021 8.37225882,35.0461309 8.41652302,33.7005306 Z M4.23084529,34.273901 C4.24439556,33.1549185 5.38803816,32.0937281 6.55019947,32.1219416 C7.44632385,32.1437843 8.07370125,32.7794974 8.06105433,33.6522946 C8.04434233,34.7903895 6.92418686,35.8374731 5.75525042,35.8074394 C4.87041793,35.7851417 4.22045675,35.1307713 4.23084529,34.273901 Z" fill="#FFFFFF"></path>
                                    <path d="M31.7875733,34.7175805 C31.8015752,34.7794681 31.8155772,34.8418108 31.8295791,34.9036984 C36.461964,34.2952886 41.0943489,33.6868789 45.7271855,33.0780141 C45.7190553,33.0161265 45.7109252,32.9546939 45.702795,32.8928063 C41.0640867,33.5012161 36.42583,34.1091708 31.7875733,34.7175805 Z" fill="#FFFFFF"></path>
                                    <path d="M22.396786,36.2583998 C22.3642654,36.2706863 22.3312931,36.2834279 22.2987724,36.2957144 C22.3931726,36.5569165 22.4875728,36.8181186 22.6063635,37.1457588 C22.2942557,37.2058262 22.0440274,37.2540621 21.9022012,37.2813655 C21.4758195,36.7494051 21.1126723,36.2970796 20.677257,35.7546529 C20.1849306,36.4781918 19.797393,37.0483769 19.2973881,37.7832922 C20.5977621,37.6071855 21.6695883,37.4624778 22.8678837,37.3000228 C22.6727598,36.8686298 22.5345471,36.5637423 22.396786,36.2583998 Z" fill="#FFFFFF"></path>
                                    <path d="M29.7198024,35.5821867 C29.5793313,35.2390746 29.2139258,34.9897039 28.8860093,34.6283895 C28.4153633,35.3191644 28.0088553,35.9157427 27.5187873,36.6351861 C28.7776071,36.4613548 29.8675003,36.3111863 31.0283066,36.1510066 C30.9424883,35.8738776 30.8824154,35.6800238 30.8218909,35.4861699 C30.7898219,35.4920857 30.7573013,35.4980014 30.7252323,35.5039171 C30.7455577,35.6700125 30.7658831,35.8356529 30.7857568,35.9981078 C30.2798802,36.1896864 29.9506087,36.145546 29.7198024,35.5821867 Z" fill="#FFFFFF"></path>
                                    <path d="M41.5491862,38.0058145 C41.421362,38.0276572 41.2235281,38.2137751 41.2235281,38.3243536 C41.2226248,38.9764488 41.2709541,39.6285439 41.303023,40.280639 C41.3522557,40.2929255 41.4014883,40.3056671 41.450721,40.3179536 C42.059128,39.5352574 42.667535,38.7521062 43.275942,37.96941 C43.2470348,37.9161685 43.2185792,37.863382 43.189672,37.8101405 C42.6422412,37.871118 42.0916486,37.9138932 41.5491862,38.0058145 Z" fill="#FFFFFF"></path>
                                    <path d="M23.9975243,35.7091473 C23.8136924,36.1582875 23.6298604,36.6078828 23.3972475,37.1762476 C24.5801858,37.016978 25.599166,36.8795511 26.782556,36.7198265 C26.1944744,36.2279111 25.7405404,35.8483944 25.3390008,35.5121081 C24.5314049,35.6995912 24.8435127,37.0611184 23.6678011,36.8859219 C23.8380828,36.4695458 23.9835224,36.1146022 24.1289619,35.7592035 C24.0851494,35.7423664 24.0413369,35.7259844 23.9975243,35.7091473 Z" fill="#FFFFFF"></path>
                                    <path d="M15.8221961,36.7962759 C15.6202971,37.2540621 15.4183981,37.7118484 15.1478444,38.3261739 C16.3565283,38.1678144 17.3655716,38.0353931 18.5620602,37.8783989 C17.9419096,37.3559947 17.4893307,36.9751129 17.1099232,36.6556636 C16.2788401,36.8872871 16.6207585,38.2469941 15.4292383,38.0727077 C15.6121669,37.6344889 15.7770285,37.2395004 15.9418901,36.8445118 C15.901691,36.8290399 15.8619435,36.8126579 15.8221961,36.7962759 Z" fill="#FFFFFF"></path>
                                    <path d="M14.6229974,36.992405 C11.5285679,37.4024104 8.43413837,37.8124157 5.33970888,38.2224211 C5.34783904,38.2843087 5.35642087,38.3457413 5.36455103,38.4076289 C8.45898053,37.9971684 11.55341,37.586253 14.6478395,37.1757925 C14.6397094,37.11436 14.6311275,37.0533825 14.6229974,36.992405 Z" fill="#FFFFFF"></path>
                                    <path d="M36.17515,43.5274629 C36.0527459,43.5479404 35.8865293,43.7299628 35.8666556,43.8573785 C35.8210364,44.1540749 35.852202,44.4630579 35.852202,44.9331306 C36.6751549,44.3820579 37.3653152,43.9197211 38.0554755,43.4578394 C38.0387635,43.4036877 38.0215999,43.3499911 38.0048879,43.2958395 C37.3942224,43.3681933 36.780847,43.4250753 36.17515,43.5274629 Z" fill="#FFFFFF"></path>
                                    <path d="M18.6767858,37.4570171 L18.6767858,35.5835519 C18.1668441,35.8301922 17.7571743,36.0281415 17.220132,36.2879785 C17.7761447,36.7339332 18.194848,37.0702196 18.6767858,37.4570171 Z" fill="#FFFFFF"></path>
                                    <path d="M26.9234788,34.4267998 C26.424829,34.6684345 26.0038673,34.8722995 25.4681801,35.1316814 C25.9988989,35.5749058 26.4121821,35.9198382 26.9234788,36.3471357 L26.9234788,34.4267998 Z" fill="#FFFFFF"></path>
                                    <path d="M10.5674022,43.5406595 L10.5674022,42.0134919 C10.0574605,42.0817503 9.59042789,42.144093 8.92827147,42.2328289 C9.54164693,42.722469 10.0154546,43.1001654 10.5674022,43.5406595 Z" fill="#FFFFFF"></path>
                                    <path d="M19.1243963,35.5385014 L19.1243963,37.3755621 C19.5625217,36.7389389 19.8940515,36.2570346 20.2951395,35.673653 C19.8263002,35.6199564 19.4898019,35.5808216 19.1243963,35.5385014 Z" fill="#FFFFFF"></path>
                                    <path d="M28.5346057,34.477311 L27.3480539,34.477311 L27.3480539,35.9708045 C27.3954798,35.9894618 27.4429058,36.0081191 27.4903317,36.0267764 C27.8105697,35.551698 28.1308077,35.0761646 28.5346057,34.477311 Z" fill="#FFFFFF"></path>
                                    <path d="M20.589632,34.9610805 C19.5711035,34.5721868 18.6745274,34.7690082 17.8050519,35.2718788 C18.2549208,35.1974772 18.6957562,35.0328438 19.1465284,34.9742723 C19.598204,34.9151731 20.0598165,34.9610805 20.589632,34.9610805 Z" fill="#FFFFFF"></path>
                                    <path d="M33.6498318,13.7840986 C31.0165631,11.1270271 28.3873594,8.46540509 25.7324103,5.83063137 C25.5558051,5.65543484 25.1673641,5.59491241 24.8990688,5.63404722 C23.6858682,5.81060891 22.4762809,6.01993463 21.2757272,6.26930527 C20.962716,6.33437826 20.6013755,6.51776579 20.4085101,6.76304093 C17.7793064,10.1131625 15.1758483,13.4837617 12.5678734,16.8511754 C12.4784416,16.9667596 12.412497,17.100546 12.2887379,17.3021358 C19.510579,16.2145522 26.6438916,15.1401652 33.8449556,14.0557669 C33.7482971,13.9192502 33.7080979,13.8428008 33.6498318,13.7840986 Z" fill="#282828"></path>
                                    <path d="M36.1774084,22.5885203 C35.6493996,21.7594084 35.213081,20.8711393 34.7315948,20.0119937 C34.1037657,18.8916461 33.4700649,17.7744838 32.8390741,16.6559564 C32.7943582,16.6696081 32.7496423,16.6832598 32.7049264,16.6964564 L32.7049264,22.122088 C32.3562329,22.2171947 32.0639988,22.2968295 31.8029303,22.3678182 L31.8029303,31.2860039 C32.9632849,30.0232237 34.0188507,28.8751177 35.1358445,27.6596634 C34.185519,26.8810627 33.6019542,25.9873329 34.0179474,24.669946 C34.6376463,25.4034962 35.2352131,26.1115631 35.83549,26.8223605 C36.5572676,26.2913102 36.9836493,25.7088387 36.8260146,24.7277381 C36.7040621,23.97007 36.6028868,23.2569974 36.1774084,22.5885203 Z M35.9199533,24.2162553 C35.9014346,24.344581 35.8770441,24.4770023 35.8409101,24.6176146 C35.7334113,25.0349009 35.8228431,25.5040635 35.8228431,26.0897205 C34.6941057,24.8961088 33.7437803,23.766205 33.64396,22.1512116 C34.2505603,21.7075321 34.7189479,22.1189026 35.2067575,22.4083182 C35.7758688,22.8856718 35.9868013,23.3875985 35.939827,24.0301374 C35.9624108,24.0797385 35.9845429,24.1293396 36.0071267,24.1789407 C35.9782195,24.1916823 35.9493122,24.2039688 35.9199533,24.2162553 Z" fill="#282828"></path>
                                    <path d="M32.3164854,14.7847665 C32.1850478,14.7847665 32.1186515,14.7765755 32.0549652,14.7861317 C26.1876993,15.6557435 20.3199816,16.5235351 14.453619,17.4008829 C13.4861299,17.5455907 13.4798064,17.58063 13.6952557,18.6977923 C19.8940515,17.7767591 26.0969125,16.8552709 32.3169371,15.9310523 C32.3164854,15.513311 32.3164854,15.1820303 32.3164854,14.7847665 Z" fill="#282828"></path>
                                    <path d="M34.2442369,14.4944408 C33.7866895,14.5235644 33.3327555,14.6109351 32.9203757,14.6696374 C32.8824349,14.7692946 32.8616579,14.797053 32.868433,14.8093395 C34.1448682,17.1506022 35.4199484,19.49323 36.7121923,21.8253915 C36.7776853,21.943251 36.9985546,22.0447285 37.1394774,22.0356274 C37.5712793,22.008324 37.9994677,21.9236836 38.5085061,21.8499646 C37.1954852,19.4094997 35.937117,17.0614112 34.6615851,14.7224238 C34.5956405,14.601834 34.3815462,14.4857948 34.2442369,14.4944408 Z" fill="#282828"></path>
                                    <path d="M20.9866548,5.63723261 C21.922075,5.43473273 22.9017593,5.40287881 23.8123373,5.12939021 C24.9993408,4.77262638 25.9225657,4.98377232 26.6759606,5.97715937 C27.0038771,6.40946249 27.3823812,6.45178269 27.8060529,6.00127734 C27.4501326,5.6672663 27.0472379,5.3710249 26.7473253,4.99196333 C26.0856206,4.15511551 25.3141587,3.97991898 24.2888551,4.23611546 C22.9116962,4.58059279 21.4965966,4.77262638 20.0738184,5.03428353 C20.2102245,5.65680001 20.4970385,5.74326063 20.9866548,5.63723261 Z" fill="#282828"></path>
                                    <path d="M13.2503552,17.6397873 C12.7223465,17.7216973 12.259379,17.7935962 11.7060764,17.8796017 C12.4246922,18.8971068 13.0678783,19.8090388 13.8221765,20.877055 L13.8221765,19.1096179 C13.6564116,19.0768538 13.4942601,19.0449999 13.2503552,18.996764 L13.2503552,17.6397873 Z" fill="#282828"></path>
                                    <path d="M36.7410995,22.4843125 C35.4366604,20.119842 34.132673,17.7553715 32.8282339,15.390901 C32.7365437,15.4418672 32.6448536,15.4923784 32.5531634,15.5433447 C33.8643777,17.9041748 35.1755919,20.2650048 36.4863545,22.6258349 C36.5712695,22.5785091 36.6561845,22.5316383 36.7410995,22.4843125 Z" fill="#282828"></path>
                                    <path d="M17.0539154,21.6538355 C17.2558144,21.8258466 17.4531966,21.9942173 17.6144448,22.1316442 C18.3877134,21.6688523 19.0909723,21.1874031 19.8448189,20.8078865 C22.3168394,19.5637637 24.8688065,19.0968763 27.4971068,20.2841172 C28.0784133,20.5466844 28.4393021,20.5394035 28.7356013,19.900505 C25.2034982,17.8227198 20.1998359,18.7592248 17.0539154,21.6538355 Z" fill="#282828"></path>
                                    <path d="M38.5161846,29.4958139 C38.5225081,30.4154819 39.2826781,31.1249141 40.2759127,31.1372006 C41.5044704,31.1526725 42.6079138,30.172027 42.6336593,29.0421232 C42.6557914,28.0783148 41.9014932,27.3329332 40.8883848,27.3170063 C39.6729258,27.2978939 38.5085061,28.3672753 38.5161846,29.4958139 Z" fill="#282828"></path>
                                    <path d="M8.06060266,33.6527497 C8.07324957,32.7794974 7.4454205,32.1437843 6.54974779,32.1223967 C5.38758649,32.0941832 4.24439556,33.1553736 4.23039362,34.2743561 C4.22000508,35.1312263 4.86996626,35.7851417 5.75479875,35.8078945 C6.92418686,35.8379282 8.04434233,34.7908445 8.06060266,33.6527497 Z" fill="#282828"></path>
                                    <path d="M35.5441592,23.5536939 C35.3138047,22.9630313 34.9267187,22.6235596 34.2541737,22.5926158 C34.0445962,22.5830596 33.847214,22.3059306 33.6444117,22.1512116 C33.744232,23.76666 34.6945574,24.8961088 35.8232947,26.0897205 C35.8232947,25.5036085 35.733863,25.0349009 35.8413618,24.6176146 C35.8774958,24.4770023 35.9018863,24.3450361 35.920405,24.2162553 C35.8820126,24.2326373 35.8436201,24.2490193 35.8052277,24.2654013 C35.718506,24.0283172 35.6358494,23.7894128 35.5441592,23.5536939 Z" fill="#FFFFFF"></path>
                                    <path d="M35.2072092,22.4083182 C35.4515657,22.9489246 35.6959222,23.489531 35.9402787,24.0301374 C35.9868013,23.3880535 35.7758688,22.8856718 35.2072092,22.4083182 Z" fill="#282828"></path>
                                    <path d="M35.2072092,22.4083182 C34.7193996,22.1189026 34.251012,21.707077 33.6444117,22.1512116 C33.847214,22.3059306 34.0445962,22.5826046 34.2541737,22.5926158 C34.9271704,22.6235596 35.3142563,22.9634864 35.5441592,23.5536939 C35.6358494,23.7889578 35.718506,24.0278621 35.8052277,24.2654013 C35.8436201,24.2490193 35.8820126,24.2326373 35.920405,24.2162553 C35.9294385,24.1530025 35.935762,24.0911149 35.9402787,24.0301374 C35.6954705,23.489531 35.451114,22.9489246 35.2072092,22.4083182 Z" fill="#FFFFFF"></path>
                                    <path d="M35.9199533,24.2459549 C35.9531659,24.2317078 35.9868974,24.216933 36.02011,24.2026859 C35.9941626,24.1451697 35.9687343,24.0876536 35.942787,24.0301374 C35.9375975,24.1008454 35.9303322,24.1726086 35.9199533,24.2459549 Z" fill="#282828"></path>
                                </g>
                            </g>
                        </g>
                    </g>
                </g>
            </g>
        </g>
    </g>
</svg>