<?xml version="1.0" encoding="UTF-8"?>
<svg width="32px" height="32px" viewBox="0 0 32 32" version="1.1" xmlns="http://www.w3.org/2000/svg" xmlns:xlink="http://www.w3.org/1999/xlink">
    <!-- Generator: Sketch 42 (36781) - http://www.bohemiancoding.com/sketch -->
    <title>twitter-icon</title>
    <desc>Created with Sketch.</desc>
    <defs></defs>
    <g id="Page-1" stroke="none" stroke-width="1" fill="none" fill-rule="evenodd">
        <g id="Desktop-HD" transform="translate(-1280.000000, -48.000000)" fill-rule="nonzero" fill="#FFFFFF">
            <g id="Hero">
                <g id="Right-Side" transform="translate(376.000000, 0.000000)">
                    <g id="Social-Media" transform="translate(808.000000, 32.000000)">
                        <g id="twitter" transform="translate(80.000000, 0.000000)">
                            <path d="M42.666666,26.0413337 C41.8888883,26.3888892 41.0484439,26.6248892 40.1453328,26.7493337 C41.0893328,26.1937781 41.7351105,25.3813338 42.082666,24.3120005 C41.179555,24.8400005 40.2488884,25.1942227 39.2906662,25.3746671 C38.4435551,24.4582227 37.3808885,24.0000005 36.1026664,24.0000005 C34.8946665,24.0000005 33.8635554,24.4271116 33.0093333,25.2813338 C32.1551111,26.1355559 31.728,27.166667 31.728,28.3746669 C31.728,28.7773335 31.7626667,29.1106668 31.832,29.3746668 C30.0400001,29.2777779 28.3595558,28.8262224 26.790667,28.0200003 C25.2217782,27.2137781 23.888445,26.1373337 22.7906672,24.7906671 C22.3880006,25.4848893 22.1866673,26.2208893 22.1866673,26.998667 C22.1866673,28.581778 22.8186672,29.796889 24.0826672,30.6440001 C23.4302228,30.6297779 22.7355561,30.4493334 21.9986673,30.1026668 L21.9986673,30.1440001 C21.9986673,31.1857778 22.3457784,32.1128889 23.0400006,32.9253333 C23.7342227,33.7377777 24.5884449,34.2413332 25.6026671,34.4359998 C25.2000004,34.547111 24.8457782,34.6026665 24.5400005,34.6026665 C24.359556,34.6026665 24.0888894,34.5746665 23.7280005,34.5186665 C24.0195561,35.3933331 24.5368894,36.1155553 25.2800004,36.685333 C26.0231115,37.2551108 26.866667,37.5466663 27.8106669,37.5599996 C26.1991115,38.8097773 24.3866671,39.4346662 22.3733339,39.4346662 C22.0124451,39.4346662 21.665334,39.4137773 21.3320007,39.3719995 C23.3871117,40.6777772 25.6231115,41.3306661 28.0400002,41.3306661 C29.5955557,41.3306661 31.0537778,41.0839994 32.4146666,40.5906661 C33.7755554,40.0973328 34.942222,39.4377773 35.9146664,38.6119996 C36.8871108,37.7862219 37.7239996,36.8346664 38.4253329,35.7573331 C39.1266662,34.6799998 39.6475551,33.555111 39.9879995,32.3826666 C40.3284439,31.2102223 40.4986661,30.0400001 40.4986661,28.8720002 C40.4986661,28.6222224 40.491555,28.4346669 40.4773328,28.3093336 C41.3519994,27.6844447 42.0813327,26.9275559 42.6653327,26.038667 L42.666666,26.0413337 Z M47.999999,22.0000006 L47.999999,41.9999994 C47.999999,43.6524437 47.4133324,45.065777 46.2399991,46.2399991 C45.0666658,47.4142213 43.6533326,48.0008879 41.9999994,47.999999 L22.0000006,47.999999 C20.3475563,47.999999 18.934223,47.4133324 17.7600009,46.2399991 C16.5857787,45.0666658 15.9991121,43.6533326 16.000001,41.9999994 L16.000001,22.0000006 C16.000001,20.3475563 16.5866676,18.934223 17.7600009,17.7600009 C18.9333342,16.5857787 20.3466674,15.9991121 22.0000006,16.000001 L41.9999994,16.000001 C43.6524437,16.000001 45.065777,16.5866676 46.2399991,17.7600009 C47.4142213,18.9333342 48.0008879,20.3466674 47.999999,22.0000006 Z" id="twitter-icon"></path>
                        </g>
                    </g>
                </g>
            </g>
        </g>
    </g>
</svg>