<svg xmlns="http://www.w3.org/2000/svg" viewBox="0 0 466.4 155"><path d="M373 155v-28.1h4.6V155H373zm8-6v-22.1h9.2c7.9 0 14.5 3 14.5 14.1 0 10.9-7.1 14.1-15.1 14.1H387c-3.3-.1-6-2.8-6-6.1zm4.6-.1c0 1.1.9 2 2 2h2.8c6.2 0 9.7-2.7 9.7-10 0-7.2-3.4-9.8-10.1-9.8h-4.4v17.8zm21.3.1v-22.1h18.9v4.3h-14.3v7.6h14.3v4.1h-14.3v6c0 1.1.9 2 2 2h12.3v4.1h-12.9c-3.3 0-6-2.7-6-6zm51.3 6h1.3L436 127.8c-.5-.6-1.3-1-2.2-1h-4.6V155h4.6v-5.5h15l1.8 2c1.9 2.3 4.7 3.5 7.6 3.5zm-24.3-9.5v-13.3l11.5 13.3h-11.5zm-69 4.2l-16.8-19.4c-1.9-2.2-4.7-3.5-7.6-3.5h-1.3l25.7 28.1c.5.6-.9 0 0 0h4.6v-28.1h-4.6v22.9zm97.2 5.3v-2.5h-.8v-.5h2.1v.4h-.8v2.5h-.5zm1.6 0v-3h.6l.7 2.2.7-2.2h.6v3h-.4v-2.2l-.7 2.2h-.3l-.7-2.2v2.2h-.5z" fill="#818285"/><path d="M194.4 27.5v55.8c0 9.7-3.2 17.2-9.7 22.6-6.5 5.3-14.9 8-25.3 8-10.6 0-19.1-2.7-25.5-8-6.5-5.3-9.7-12.9-9.7-22.6V27.5H144v55.8c0 5.2 1.3 9.1 4 11.6s6.5 3.8 11.4 3.8 8.6-1.2 11.3-3.7c2.6-2.5 3.9-6.4 3.9-11.6V27.5h19.8zm37 28.7l14-28.7h22.8l-24.4 42.2 26.3 42.9h-24l-14.5-29.3-14.5 29.3h-22.8l25-42.9L195 27.5h22.6l13.8 28.7zm49.6 50.5h42.1v6H274V27.5h7v79.2zm98.1-17.8h-39l-8.8 23.7H324l32.3-85.1h6.6l32.1 85.1h-7.3l-8.6-23.7zm-36.7-6.3h34.4l-17-46.1h-.4l-17 46.1zm58.5 30V27.5h24.8c8.8 0 15.7 1.9 20.7 5.6 4.9 3.7 7.4 9.3 7.4 16.8 0 4.4-1.2 8.2-3.7 11.4-2.5 3.2-5.8 5.5-10.1 6.7 5.2.9 9.4 3.4 12.6 7.3 3.2 3.9 4.9 8.5 4.9 13.6 0 7.6-2.5 13.4-7.4 17.5s-11.5 6.1-19.8 6.1h-29.4zm7-46.9h19.6c6.2 0 10.9-1.4 14.3-4.1 3.4-2.7 5.1-6.7 5.1-12 0-5.4-1.8-9.4-5.4-12.1-3.6-2.7-8.8-4.1-15.7-4.1h-17.9v32.3zm0 5.9v35h22.5c6.3 0 11.2-1.5 14.8-4.6 3.6-3.1 5.4-7.4 5.4-13 0-5.1-1.6-9.3-4.9-12.5s-8-4.9-14.2-4.9h-23.6z" fill="#010101"/><circle fill="#010101" cx="48.2" cy="18.6" r="18.6"/><path fill="#64B1BC" d="M24.9 49.5c-3.1-6.2-3.2-12.8-3.3-13.1V10.7H0v25.7c0 1.1.1 11.3 5.1 21.8 2.3 5 5.4 9.2 9 12.6 7.4-7 17.4-10.8 29.1-10.8-8.9 0-14.7-3.4-18.3-10.5z"/><path fill="#2BACE2" d="M43.2 81.7H52h-8.8zM52.1 60h-8.8 8.8z"/><path fill="#64B1BC" d="M70.4 92.2c3.1 6.2 3.2 12.8 3.3 13.1V131h21.7v-25.7c0-1.1-.1-11.3-5.1-21.8-2.3-5-5.4-9.2-9-12.6-7.4 7-17.4 10.8-29.1 10.8 8.8 0 14.6 3.3 18.2 10.5z"/><path fill="#682666" d="M73.7 10.7v25.7c0 .1-.1 6.5-3 12.6-3.5 7.5-9.4 11-18.5 11h-8.8c-11.7 0-21.7 3.8-29.1 10.8-3.6 3.4-6.7 7.6-9 12.6C.1 93.9 0 104.1 0 105.3V131h21.7v-25.7c0-.1.1-6.5 3-12.6 3.5-7.5 9.4-11 18.5-11H52c11.7 0 21.7-3.8 29.1-10.8 3.6-3.4 6.7-7.6 9-12.6 4.9-10.5 5.1-20.7 5.1-21.8V10.7H73.7z"/></svg>