<?xml version="1.0" encoding="utf-8"?>
<!-- Generator: Adobe Illustrator 16.0.0, SVG Export Plug-In . SVG Version: 6.00 Build 0)  -->
<!DOCTYPE svg PUBLIC "-//W3C//DTD SVG 1.1//EN" "http://www.w3.org/Graphics/SVG/1.1/DTD/svg11.dtd">
<svg version="1.1" id="Layer_1" xmlns="http://www.w3.org/2000/svg" xmlns:xlink="http://www.w3.org/1999/xlink" x="0px" y="0px"
	 width="379.588px" height="84.04px" viewBox="0 0 379.588 84.04" enable-background="new 0 0 379.588 84.04" xml:space="preserve">
<polygon fill="#FFFFFF" points="371.733,84.039 371.733,75.152 373.521,75.152 375.655,81.76 377.813,75.152 379.588,75.152
	379.588,84.039 378.257,84.039 378.257,77.359 376.123,84.039 375.115,84.039 372.968,77.359 372.968,84.039 "/>
<polygon fill="#FFFFFF" points="366.908,84.039 366.908,76.459 364.473,76.459 364.473,75.152 370.721,75.152 370.721,76.459
	368.287,76.459 368.287,84.039 "/>
<path fill="#FFFFFF" d="M355.24,84.04h4.028L289.143,2.975C287.508,1.086,285.133,0,282.635,0h-0.04h-13.724v84.04h13.724V67.594
	h44.75l5.282,6.106C338.308,80.266,346.56,84.04,355.24,84.04 M282.595,55.686V15.864l34.448,39.822H282.595z"/>
<path fill="#FFFFFF" d="M202.022,66.099V0h56.479v12.816h-42.757v22.682h42.757v12.249h-42.757v17.95c0,3.303,2.677,5.98,5.979,5.98
	h36.777v12.361h-38.54C210.054,84.039,202.022,76.007,202.022,66.099"/>
<path fill="#FFFFFF" d="M124.859,66.099V0h27.56c23.703,0,43.437,8.959,43.437,41.962c0,32.437-21.208,42.078-45.025,42.078h-8.032
	C132.891,84.04,124.859,76.007,124.859,66.099 M138.583,65.697c0,3.304,2.677,5.98,5.98,5.98h8.31
	c18.373,0,28.92-8.166,28.92-29.715c0-21.434-10.094-29.146-30.168-29.146h-13.042V65.697z"/>
<rect x="100.767" fill="#FFFFFF" width="13.724" height="84.039"/>
<path fill="#FFFFFF" d="M76.673,68.175L26.641,10.339C20.961,3.773,12.709,0.001,4.028,0.001H0l70.126,81.063
	c1.634,1.889,4.009,2.975,6.507,2.975h0.04h13.724V0.001H76.673V68.175z"/>
</svg>
