<svg xmlns="http://www.w3.org/2000/svg" xmlns:xlink="http://www.w3.org/1999/xlink" width="472.228" height="196.999" viewBox="0 0 472.228 196.999"><path fill="#64B1BC" d="M157.246 56.48h13.724v84.039h-13.724z"/><defs><path id="a" d="M0 0h472.228v196.999H0z"/></defs><clipPath id="b"><use xlink:href="#a" overflow="visible"/></clipPath><path clip-path="url(#b)" fill="#4296B4" d="M181.338 122.579V56.48h27.56c23.703 0 43.437 8.959 43.437 41.962 0 32.437-21.208 42.078-45.025 42.078h-8.032c-9.908 0-17.94-8.033-17.94-17.941m13.725-.402a5.979 5.979 0 0 0 5.98 5.98h8.31c18.373 0 28.92-8.166 28.92-29.715 0-21.434-10.094-29.146-30.168-29.146h-13.042v52.881z"/><path clip-path="url(#b)" fill="#276092" d="M258.502 122.579V56.48h56.479v12.816h-42.757v22.682h42.757v12.249h-42.757v17.95a5.98 5.98 0 0 0 5.979 5.98h36.777v12.361h-38.54c-9.907.001-17.938-8.031-17.938-17.939"/><path clip-path="url(#b)" fill="#1D4F90" d="M411.72 140.52h4.028l-70.126-81.064a8.608 8.608 0 0 0-6.508-2.975H325.35v84.04h13.724v-16.445h44.75l5.282 6.106a29.909 29.909 0 0 0 22.614 10.338m-72.646-28.354V72.344l34.448 39.822h-34.448z"/><path clip-path="url(#b)" fill="#83C8BC" d="M133.153 124.655L83.121 66.819a29.898 29.898 0 0 0-22.613-10.338H56.48l70.126 81.063a8.604 8.604 0 0 0 6.507 2.975h13.764V56.481h-13.724v68.174z"/><path clip-path="url(#b)" fill="#1D4F90" d="M423.388 140.519v-7.58h-2.436v-1.307h6.248v1.307h-2.433v7.58zm4.825 0v-8.887H430l2.135 6.608 2.158-6.608h1.774v8.887h-1.331v-6.68l-2.133 6.68h-1.008l-2.148-6.68v6.68z"/></svg>