<?xml version="1.0" standalone="no"?>
<!DOCTYPE svg PUBLIC "-//W3C//DTD SVG 1.1//EN" "http://www.w3.org/Graphics/SVG/1.1/DTD/svg11.dtd">
<svg width="100%" height="100%" viewBox="0 0 510 519" version="1.1" xmlns="http://www.w3.org/2000/svg" xmlns:xlink="http://www.w3.org/1999/xlink" xml:space="preserve" style="fill-rule:evenodd;clip-rule:evenodd;stroke-miterlimit:1.41421;">
    <g>
        <path d="M254.926,65.236L254.926,65.253C204.101,65.342 162.948,93.624 162.948,128.501C162.948,163.437 204.238,191.753 255.17,191.753L255.17,191.735C305.988,191.649 347.149,163.367 347.149,128.49C347.149,93.554 305.86,65.236 254.926,65.236Z" style="fill:black;fill-rule:nonzero;"/>
        <path d="M254.926,65.236L254.926,65.253C204.101,65.342 162.948,93.624 162.948,128.501C162.948,163.437 204.238,191.753 255.17,191.753L255.17,191.735C305.988,191.649 347.149,163.367 347.149,128.49C347.149,93.554 305.86,65.236 254.926,65.236Z" style="fill:none;stroke-width:1px;stroke:rgb(254,254,254);"/>
        <path d="M257.641,215.522C256.73,215.522 255.836,215.487 254.926,215.473L254.926,215.493C254.099,215.504 253.28,215.538 252.449,215.538C235.325,215.538 218.536,209.081 203.794,204.61C203.774,204.725 203.282,283.592 203.282,283.592L206.658,502.53C206.749,513.063 231.137,518.35 255.17,517.721L255.17,517.713C279.121,518.301 303.34,513.012 303.444,502.512L306.811,283.581C306.811,283.581 306.319,204.713 306.298,204.6C291.566,209.071 274.769,215.522 257.641,215.522Z" style="fill:black;fill-rule:nonzero;"/>
        <path d="M257.641,215.522C256.73,215.522 255.836,215.487 254.926,215.473L254.926,215.493C254.099,215.504 253.28,215.538 252.449,215.538C235.325,215.538 218.536,209.081 203.794,204.61C203.774,204.725 203.282,283.592 203.282,283.592L206.658,502.53C206.749,513.063 231.137,518.35 255.17,517.721L255.17,517.713C279.121,518.301 303.34,513.012 303.444,502.512L306.811,283.581C306.811,283.581 306.319,204.713 306.298,204.6C291.566,209.071 274.769,215.522 257.641,215.522Z" style="fill:none;stroke-width:1px;stroke:rgb(254,254,254);"/>
        <path d="M378.058,126.641C378.058,154.458 358.253,179.06 327.882,194.117C328.081,217.26 329.223,357.612 327.833,433.745C328.924,435.928 509.394,98.835 509.394,93.585L367.277,93.585C373.962,103.919 378.058,114.589 378.058,126.641Z" style="fill:black;fill-rule:nonzero;"/>
        <path d="M378.058,126.641C378.058,154.458 358.253,179.06 327.882,194.117C328.081,217.26 329.223,357.612 327.833,433.745C328.924,435.928 509.394,98.835 509.394,93.585L367.277,93.585C373.962,103.919 378.058,114.589 378.058,126.641Z" style="fill:none;stroke-width:1px;stroke:rgb(254,254,254);"/>
        <path d="M155.439,77.421C177.284,56.954 212.383,43.671 251.981,43.671C253.052,43.671 254.108,43.719 255.17,43.74L255.17,43.721C256.147,43.7 257.124,43.661 258.108,43.661C297.713,43.661 332.814,56.939 354.654,77.406C355.643,77.427 509.456,77.125 509.394,76.947C499.362,62.502 401.624,3.873 258.174,0.841C257.083,0.818 256.01,0.831 254.926,0.816L254.926,0.831C253.918,0.841 252.936,0.834 251.918,0.855C108.471,3.888 10.738,62.519 0.695,76.959C0.637,77.14 154.455,77.437 155.439,77.421Z" style="fill:black;fill-rule:nonzero;"/>
        <path d="M155.439,77.421C177.284,56.954 212.383,43.671 251.981,43.671C253.052,43.671 254.108,43.719 255.17,43.74L255.17,43.721C256.147,43.7 257.124,43.661 258.108,43.661C297.713,43.661 332.814,56.939 354.654,77.406C355.643,77.427 509.456,77.125 509.394,76.947C499.362,62.502 401.624,3.873 258.174,0.841C257.083,0.818 256.01,0.831 254.926,0.816L254.926,0.831C253.918,0.841 252.936,0.834 251.918,0.855C108.471,3.888 10.738,62.519 0.695,76.959C0.637,77.14 154.455,77.437 155.439,77.421Z" style="fill:none;stroke-width:1px;stroke:rgb(254,254,254);"/>
        <path d="M182.219,194.132C151.844,179.076 132.031,154.472 132.031,126.653C132.031,114.603 136.135,103.93 142.812,93.597L0.695,93.597C0.695,98.852 181.176,435.946 182.269,433.752C180.867,357.62 182.012,217.27 182.219,194.132Z" style="fill:black;fill-rule:nonzero;"/>
        <path d="M182.219,194.132C151.844,179.076 132.031,154.472 132.031,126.653C132.031,114.603 136.135,103.93 142.812,93.597L0.695,93.597C0.695,98.852 181.176,435.946 182.269,433.752C180.867,357.62 182.012,217.27 182.219,194.132Z" style="fill:none;stroke-width:1px;stroke:rgb(254,254,254);"/>
    </g>
</svg>
